{
    "asset": {
        "version": "2.0",
        "generator": "Open Asset Import Library (assimp v5.2.cf7d3637)"
    },
    "extensionsUsed": [
        "KHR_materials_volume",
        "KHR_materials_ior",
        "FB_ngon_encoding"
    ],
    "accessors": [
        {
            "bufferView": 0,
            "byteOffset": 0,
            "componentType": 5126,
            "count": 12414,
            "type": "VEC3",
            "max": [
                1.5488054752349854,
                0.4482501745223999,
                2.9280264377593996
            ],
            "min": [
                -1.5487966537475587,
                -1.0744314193725587,
                -2.516571521759033
            ]
        },
        {
            "bufferView": 1,
            "byteOffset": 0,
            "componentType": 5126,
            "count": 12414,
            "type": "VEC2",
            "max": [
                0.9980400204658508,
                0.9980499744415283
            ],
            "min": [
                0.0019499999471008778,
                0.005299985408782959
            ]
        },
        {
            "bufferView": 2,
            "byteOffset": 0,
            "componentType": 5125,
            "count": 12414,
            "type": "SCALAR",
            "max": [
                12413
            ],
            "min": [
                0
            ]
        }
    ],
    "buffers": [
        {
            "byteLength": 297936,
            "uri": "result.bin"
        }
    ],
    "bufferViews": [
        {
            "buffer": 0,
            "byteOffset": 0,
            "byteLength": 148968,
            "target": 34962
        },
        {
            "buffer": 0,
            "byteOffset": 148968,
            "byteLength": 99312,
            "target": 34962
        },
        {
            "buffer": 0,
            "byteOffset": 248280,
            "byteLength": 49656,
            "target": 34963
        }
    ],
    "materials": [
        {
            "name": "DefaultMaterial",
            "pbrMetallicRoughness": {
                "baseColorFactor": [
                    0.6000000238418579,
                    0.6000000238418579,
                    0.6000000238418579,
                    1.0
                ],
                "metallicFactor": 0.0
            },
            "extensions": {
                "KHR_materials_ior": {
                    "ior": 1.0
                }
            }
        },
        {
            "name": "defaultMat",
            "pbrMetallicRoughness": {
                "baseColorFactor": [
                    0.6000000238418579,
                    0.6000000238418579,
                    0.6000000238418579,
                    1.0
                ],
                "metallicFactor": 0.0
            },
            "extensions": {
                "KHR_materials_ior": {
                    "ior": 1.0
                }
            }
        }
    ],
    "meshes": [
        {
            "name": "Group52111",
            "primitives": [
                {
                    "mode": 4,
                    "material": 1,
                    "indices": 2,
                    "attributes": {
                        "POSITION": 0,
                        "TEXCOORD_0": 1
                    }
                }
            ]
        }
    ],
    "nodes": [
        {
            "name": "SkullTombstoneLowPoly.OBJ",
            "children": [
                1
            ]
        },
        {
            "name": "Group52111",
            "mesh": 0
        }
    ],
    "scenes": [
        {
            "nodes": [
                0
            ]
        }
    ],
    "scene": 0
}